<?xml version="1.0" encoding="utf-8"?>
<!-- Svg Vector Icons : http://www.onlinewebfonts.com/icon -->
<!DOCTYPE svg PUBLIC "-//W3C//DTD SVG 1.1//EN" "http://www.w3.org/Graphics/SVG/1.1/DTD/svg11.dtd">
<svg version="1.1" xmlns="http://www.w3.org/2000/svg" xmlns:xlink="http://www.w3.org/1999/xlink" x="0px" y="0px" viewBox="0 0 256 256" enable-background="new 0 0 256 256" xml:space="preserve">
<metadata> Svg Vector Icons : http://www.onlinewebfonts.com/icon </metadata>
<g><g><g><path fill="#000000" d="M34.9,10.9c-0.9,0.5-6.7,6-13,12.3C9.7,35.6,9.5,35.8,10.2,39.9c0.3,1.5,5.1,6.5,43.5,44.9L96.9,128l-43.2,43.2c-38.4,38.4-43.2,43.4-43.5,44.9c-0.7,4.1-0.6,4.3,11.7,16.6c6.3,6.3,12.2,11.8,13.1,12.4c1.9,1,3.8,1.1,5.8,0.4c0.7-0.3,20.1-19.2,44.3-43.5l43-43l43,43c24.2,24.2,43.5,43.2,44.3,43.5c1.9,0.7,3.8,0.6,5.8-0.4c2.1-1.1,23.2-22.3,24.2-24.3c0.8-1.7,0.9-3.7,0.3-5.5c-0.3-0.7-19.2-20.1-43.5-44.3l-43-43l43-43c24.2-24.2,43.2-43.5,43.5-44.3c0.7-1.9,0.6-3.8-0.4-5.8c-0.5-0.9-6-6.8-12.4-13.1c-12.3-12.2-12.6-12.4-16.6-11.7c-1.6,0.3-6.5,5.1-45,43.5L128,96.9l-43-43C60.8,29.7,41.5,10.8,40.8,10.5C38.8,9.8,36.7,9.9,34.9,10.9z"/></g></g></g>
</svg>