<?xml version="1.0" standalone="no"?>
<!DOCTYPE svg PUBLIC "-//W3C//DTD SVG 20010904//EN"
 "http://www.w3.org/TR/2001/REC-SVG-20010904/DTD/svg10.dtd">
<svg version="1.0" xmlns="http://www.w3.org/2000/svg"
 width="413.000000pt" height="512.000000pt" viewBox="0 0 413.000000 512.000000"
 preserveAspectRatio="xMidYMid meet">

<g transform="translate(0.000000,512.000000) scale(0.100000,-0.100000)"
fill="#000000" stroke="none">
<path d="M2560 5027 c159 -145 220 -344 190 -612 -7 -61 -16 -117 -20 -125 -6
-11 -22 -14 -68 -12 l-60 4 -7 76 c-20 234 -114 395 -278 477 -96 48 -127 46
-51 -3 158 -103 239 -250 251 -454 l6 -97 -44 -11 c-73 -19 -103 -28 -119 -34
-10 -4 -46 24 -110 86 -262 255 -602 398 -949 398 -336 0 -635 -129 -878 -378
-438 -450 -482 -1167 -105 -1702 26 -36 89 -108 142 -161 220 -221 515 -339
848 -339 45 0 82 -3 82 -7 0 -3 -13 -27 -29 -52 -54 -84 -74 -163 -69 -271 10
-207 84 -295 286 -337 l80 -17 -6 -161 c-10 -310 37 -469 185 -626 l64 -67
-85 -41 c-144 -70 -235 -172 -236 -263 0 -43 15 -54 100 -75 169 -40 674 -37
759 5 35 17 36 18 36 75 l-1 58 86 -6 c208 -14 193 -10 247 -77 143 -179 352
-269 487 -209 26 11 69 39 96 61 l48 40 170 0 c194 0 387 22 445 51 33 17 37
24 37 56 0 114 -155 261 -347 329 -71 25 -74 30 -44 73 64 91 131 276 162 449
34 187 30 502 -6 489 -14 -6 -9 15 26 103 59 153 36 275 -79 402 -45 50 -223
191 -351 278 -58 39 -101 77 -110 94 -21 44 -16 166 13 306 57 283 60 305 60
535 0 236 -6 279 -61 410 -54 130 -184 291 -315 390 -27 20 -48 38 -48 41 0 2
11 31 24 62 82 193 93 400 29 526 -29 57 -41 48 -24 -20 36 -141 -2 -365 -84
-493 l-25 -40 -57 24 c-65 26 -63 21 -45 140 27 168 7 366 -47 473 -27 53
-116 149 -170 184 -60 37 -74 35 -31 -5z m-1060 -661 c245 -64 414 -158 556
-309 84 -89 146 -204 183 -337 137 -498 -18 -961 -385 -1145 -123 -61 -212
-85 -401 -106 -98 -11 -127 -10 -240 5 -126 18 -267 57 -344 97 -178 90 -321
238 -395 405 -14 33 -30 68 -35 79 -5 11 -17 45 -25 75 -89 315 -32 658 152
907 143 194 302 297 529 343 68 14 332 5 405 -14z m1348 -352 c17 -3 40 -15
51 -25 11 -11 24 -19 28 -19 5 0 14 -10 22 -22 l13 -21 -27 21 c-15 12 -34 22
-41 22 -8 0 -14 6 -14 13 0 14 -11 16 -110 19 -50 1 -58 3 -35 9 41 9 77 10
113 3z m42 -423 c59 -23 130 -66 130 -81 0 -5 -25 3 -56 17 -81 37 -177 49
-271 35 -50 -8 -80 -9 -86 -3 -14 14 9 39 47 51 46 14 176 4 236 -19z m-276
-641 c21 -27 35 -54 32 -59 -3 -5 5 -18 19 -28 14 -10 27 -28 28 -40 0 -12 4
-20 8 -18 9 6 56 -118 79 -210 19 -77 40 -217 60 -410 6 -49 15 -100 20 -112
6 -16 6 -23 -1 -23 -6 0 -3 -7 5 -16 9 -8 16 -23 16 -33 0 -10 11 -40 25 -66
13 -27 22 -51 20 -53 -2 -2 6 -14 19 -26 24 -23 89 -126 84 -132 -2 -2 -36 -4
-76 -5 -39 -1 -69 -6 -66 -10 3 -5 -4 -9 -15 -9 -12 0 -21 -4 -21 -10 0 -5 -8
-10 -17 -10 -9 0 -25 -7 -35 -17 -10 -9 -21 -13 -25 -9 -4 4 -1 12 7 17 13 9
13 9 0 7 -17 -3 -103 85 -93 95 3 4 1 7 -6 7 -7 0 -9 5 -5 12 4 7 3 8 -4 4 -6
-4 -16 4 -23 16 -7 13 -24 35 -38 49 -14 14 -37 39 -50 55 -147 176 -181 219
-181 231 0 9 5 11 13 7 9 -6 9 -4 1 7 -7 8 -8 22 -3 34 11 28 11 148 0 177 -6
17 -23 28 -60 38 -28 7 -47 18 -44 23 3 6 1 7 -5 3 -7 -4 -19 -3 -27 1 -12 7
-8 16 23 49 81 88 117 134 148 189 6 11 27 48 47 83 20 34 51 103 69 152 18
49 33 90 33 90 1 0 18 -22 39 -50z m-327 -899 c96 -44 41 -121 -88 -121 -19 0
-44 -6 -55 -14 -35 -27 -3 -39 104 -40 116 -1 152 -17 152 -66 0 -38 -29 -57
-115 -77 -52 -12 -65 -18 -65 -34 0 -17 8 -19 70 -19 82 0 127 -18 136 -55 7
-30 -13 -65 -47 -82 -135 -67 -215 -85 -272 -64 -37 14 -102 86 -137 153 -42
78 -60 147 -60 228 0 114 38 157 170 192 86 22 155 22 207 -1z m-417 -35 c0
-2 -7 -6 -15 -10 -8 -3 -15 -1 -15 4 0 6 7 10 15 10 8 0 15 -2 15 -4z m-103
-22 c-3 -3 -12 -4 -19 -1 -8 3 -5 6 6 6 11 1 17 -2 13 -5z m-104 -11 c-7 -2
-19 -2 -25 0 -7 3 -2 5 12 5 14 0 19 -2 13 -5z m1686 -70 c-64 -74 -125 -133
-137 -133 -8 0 -10 -5 -6 -12 4 -7 4 -10 0 -6 -4 3 -16 -1 -26 -10 -11 -9 -31
-27 -45 -40 -14 -13 -30 -20 -35 -17 -6 4 3 16 19 28 52 38 123 100 180 158
58 58 93 80 50 32z m-260 -273 c215 -102 371 -431 247 -522 -51 -37 -67 -33
-116 32 -24 34 -51 59 -59 58 -8 -2 -20 -21 -28 -43 -7 -22 -21 -47 -29 -55
-14 -13 -18 -12 -41 14 -24 28 -25 35 -21 114 4 83 5 86 42 119 23 21 43 32
53 29 48 -19 63 -18 63 2 0 12 -11 24 -29 32 -54 22 -120 -16 -194 -114 -24
-31 -34 -37 -60 -34 -28 3 -33 8 -41 40 -11 45 9 98 66 170 40 50 97 75 145
64 27 -7 45 20 22 35 -45 28 -126 -2 -211 -78 -39 -35 -82 -66 -95 -69 -33 -9
-53 12 -53 55 0 67 60 134 150 165 69 23 117 20 189 -14z m-1004 -208 c38 -23
137 -23 180 0 34 18 35 17 65 -67 6 -16 15 -39 20 -50 9 -20 76 -188 110 -275
10 -25 32 -81 50 -125 17 -44 41 -102 51 -130 11 -27 24 -59 28 -70 43 -102
71 -177 71 -190 0 -8 5 -15 10 -15 6 0 10 -7 10 -16 0 -14 -7 -16 -47 -9 -27
4 -58 8 -71 10 -12 2 -72 18 -134 35 -148 42 -247 86 -358 157 -116 73 -179
156 -199 262 -13 69 -13 255 1 354 5 34 11 75 13 91 5 40 12 44 75 49 30 2 64
4 75 5 11 1 34 -6 50 -16z m1564 -49 c-22 -26 -181 -163 -204 -175 -34 -19 -1
15 63 64 31 23 77 62 102 85 47 45 62 55 39 26z m-265 -335 c7 -44 9 -65 7
-117 l-1 -44 -20 24 c-11 13 -24 29 -29 35 -5 6 -21 30 -36 54 -20 31 -23 41
-11 37 9 -4 16 -3 16 2 0 5 11 12 25 15 14 4 25 11 25 16 0 25 20 7 24 -22z
m305 -464 c157 -39 322 -161 358 -265 10 -31 11 -44 2 -55 -19 -23 -27 -17
-43 34 -17 48 -52 92 -110 137 -39 30 -56 32 -56 6 0 -11 15 -29 36 -42 50
-30 94 -94 94 -135 0 -36 4 -34 -112 -49 -46 -6 -46 -6 -53 27 -17 77 -99 178
-145 178 -29 0 -25 -9 29 -65 52 -53 84 -114 71 -135 -5 -9 -45 -12 -140 -12
-72 0 -133 2 -135 4 -2 2 11 33 28 68 31 63 32 69 31 193 l-1 127 40 0 c23 0
70 -7 106 -16z m-1685 -58 c102 -62 258 -125 351 -141 55 -10 74 -22 86 -53
17 -44 4 -70 -44 -84 -47 -14 -582 -19 -629 -5 -17 4 -28 14 -28 25 0 43 82
134 137 153 32 10 43 31 23 44 -16 10 -83 -24 -123 -63 -21 -20 -50 -59 -64
-87 -14 -27 -27 -52 -29 -53 -1 -2 -19 1 -38 8 -42 14 -45 32 -17 88 22 44
103 122 152 148 30 15 139 62 147 64 2 0 36 -20 76 -44z"/>
<path d="M888 3761 c-118 -39 -199 -109 -249 -216 -38 -81 -53 -163 -45 -254
27 -296 249 -494 508 -452 217 35 348 197 348 431 0 197 -110 398 -260 476
-73 37 -214 44 -302 15z m32 -136 c38 -20 50 -43 50 -101 0 -63 -31 -125 -94
-190 -62 -64 -112 -79 -154 -47 -15 11 -33 31 -39 44 -41 80 23 240 115 289
45 23 83 25 122 5z m458 -432 c18 -24 15 -61 -9 -109 -21 -45 -80 -104 -103
-104 -40 0 -52 98 -20 165 33 70 97 93 132 48z"/>
<path d="M2410 2625 c0 -9 14 -45 30 -82 29 -64 39 -110 21 -99 -15 10 3 -49
24 -76 41 -50 81 -47 120 11 19 26 25 31 25 17 0 -11 3 -17 6 -13 4 3 2 19 -4
36 -8 22 -7 31 1 34 8 2 6 9 -6 21 -9 10 -17 21 -17 25 0 13 -81 91 -120 116
-45 28 -80 32 -80 10z"/>
<path d="M1872 1180 c0 -14 2 -19 5 -12 2 6 2 18 0 25 -3 6 -5 1 -5 -13z"/>
<path d="M2580 510 c0 -5 7 -10 16 -10 8 0 12 5 9 10 -3 6 -10 10 -16 10 -5 0
-9 -4 -9 -10z"/>
<path d="M3340 981 c0 -6 4 -12 8 -15 5 -3 9 1 9 9 0 8 -4 15 -9 15 -4 0 -8
-4 -8 -9z"/>
</g>
</svg>
