<?xml version="1.0" encoding="utf-8"?>
<!-- Svg Vector Icons : http://www.onlinewebfonts.com/icon -->
<!DOCTYPE svg PUBLIC "-//W3C//DTD SVG 1.1//EN" "http://www.w3.org/Graphics/SVG/1.1/DTD/svg11.dtd">
<svg version="1.1" xmlns="http://www.w3.org/2000/svg" xmlns:xlink="http://www.w3.org/1999/xlink" x="0px" y="0px" viewBox="0 0 256 256" enable-background="new 0 0 256 256" xml:space="preserve">
<metadata> Svg Vector Icons : http://www.onlinewebfonts.com/icon </metadata>
<g><g><g><path fill="#000000" d="M109,10.5c-1.8,0.8-3.4,2.6-4.1,4.4c-0.4,0.9-0.5,15.4-0.5,45.4v44.1l-44.8,0.1c-44.4,0.1-44.8,0.1-46.2,1.2c-0.7,0.5-1.8,1.6-2.4,2.4c-1,1.3-1,1.9-1,20c0,18.1,0,18.7,1,20c0.5,0.7,1.6,1.8,2.4,2.4c1.3,1,1.8,1,46.2,1.2l44.8,0.1l0.1,44.8c0.1,44.4,0.1,44.8,1.2,46.2c0.5,0.7,1.6,1.8,2.4,2.4c1.3,1,1.9,1,20,1c18.1,0,18.7,0,20-1c0.7-0.5,1.8-1.6,2.4-2.4c1-1.3,1-1.8,1.2-46.2l0.1-44.8l44.8-0.1c44.4-0.1,44.8-0.1,46.2-1.2c0.7-0.5,1.8-1.6,2.4-2.4c1-1.3,1-1.9,1-20c0-18.1,0-18.7-1-20c-0.5-0.7-1.6-1.8-2.4-2.4c-1.3-1-1.8-1-46.2-1.2l-44.8-0.1l-0.1-44.8c-0.1-44.4-0.1-44.8-1.2-46.2c-0.5-0.7-1.6-1.8-2.4-2.4c-1.3-1-2-1-19.4-1.1C114.3,9.9,110.2,10,109,10.5z"/></g></g></g>
</svg>