<?xml version="1.0" encoding="utf-8"?>
<!-- Svg Vector Icons : http://www.onlinewebfonts.com/icon -->
<!DOCTYPE svg PUBLIC "-//W3C//DTD SVG 1.1//EN" "http://www.w3.org/Graphics/SVG/1.1/DTD/svg11.dtd">
<svg version="1.1" xmlns="http://www.w3.org/2000/svg" xmlns:xlink="http://www.w3.org/1999/xlink" x="0px" y="0px" viewBox="0 0 256 256" enable-background="new 0 0 256 256" xml:space="preserve">
<metadata> Svg Vector Icons : http://www.onlinewebfonts.com/icon </metadata>
<g><g><g><path fill="#000000" d="M116.4,58.6c-30,1.4-51.9,8.3-62.2,19.5c-1.2,1.3-2.1,2.4-2.1,2.6c0,0.2-8,0.4-20.3,0.4l-20.3,0.1l2,2.7c2.4,3.1,5.5,9.3,7.3,14.5L22,102l-2.1,3.1c-2.4,3.6-5.6,10-6.9,14.1c-5.8,17.5-3.2,36.5,7.1,52.1c3.4,5.1,11.1,12.8,16.1,16.2c24.1,15.9,54.9,12.9,75.4-7.4c1.9-1.9,3.5-3.4,3.5-3.3c0.1,0,3,4.2,6.6,9.2c3.6,5.1,6.6,9.2,6.8,9.2c0.1,0,2.8-4.3,5.9-9.6l5.7-9.6l3.9,4c22.3,22.3,56.9,23.8,81.1,3.3c9.1-7.7,15.9-18.6,18.9-30.4c1.5-5.8,2-11,1.7-17.5c-0.5-11.5-3.8-21.3-10.4-31.1l-2.9-4.2l1.2-3.2c1.7-4.5,4.8-10.5,7-13.3l1.8-2.4l-20-0.2l-20-0.2l-3.1-3.2c-8.9-9-24.5-15.1-45.9-17.8C143.5,58.6,127.5,58,116.4,58.6z M140.6,65.6c13,1,24.2,3.7,33.4,8.1c4,1.9,8.9,5,11.3,7l1.4,1.3l-5.7,0c-10.2,0.1-18.6,2.5-27,8.1c-11.7,7.5-19.4,19.2-25.1,37.8c-0.1,0.3-0.9-1.6-1.8-4.2c-4.1-12.3-9.1-20.6-16.7-27.9C100.8,86.7,89.2,82,75.9,82h-5.1l1-1c1.6-1.7,6.6-4.9,11.2-7.1c9.4-4.5,22.6-7.7,35-8.4C123.1,65.2,136.1,65.2,140.6,65.6z M78.1,90.9c14.6,2.6,27.4,12.1,34.2,25.5c5.8,11.4,6.8,25.6,2.5,37.5c-5.6,15.8-19.1,27.5-35.6,31.1c-4.1,0.9-12.3,1.1-16.8,0.4c-19.7-3-35.5-18-39.8-37.9c-1-4.4-1-14.4,0-18.8c2.1-9.7,6.4-17.6,13.3-24.5C47.2,92.9,62.5,88.1,78.1,90.9z M195,90.9c8.8,1.4,17.6,5.9,24.5,12.5c6.8,6.4,11.2,14,13.5,23.1c1.3,5.1,1.7,14.2,0.8,19.4c-1.7,10-6.3,18.9-13.5,26c-6.7,6.7-14.7,11.1-24,13.1c-3.8,0.8-12.1,1.1-15.9,0.6c-7.5-1.1-15.2-4-21.3-8.2c-3.9-2.7-9.4-8.3-12.2-12.4c-5.6-8.5-8.2-16.9-8.2-27c0-12.5,4.5-23.8,13.3-32.9C163.2,93.2,178.5,88.2,195,90.9z"/><path fill="#000000" d="M62.7,110.2c-13.2,3.4-22.5,16-21.7,29.4c0.3,4.2,1,7,2.8,10.7c3.3,6.9,8.9,12,15.9,14.6c14.8,5.4,30.8-1.9,36.7-16.6c1.3-3.2,1.7-6.1,1.7-10.5c0-12.3-7.7-22.9-19.7-27C74.4,109.4,66.9,109.1,62.7,110.2z M74.5,118.8c4.2,0.9,9,4.3,11.6,8.3c3.9,5.9,4.4,13.6,1.2,19.9c-2.1,4.2-6.4,8-11,9.7c-3.2,1.2-8.2,1.5-11.4,0.7c-5.4-1.4-10.4-5.3-13-10c-5.7-10.8-0.1-24.4,11.5-28.2C66.9,118,70.5,117.9,74.5,118.8z"/><path fill="#000000" d="M66.7,128.8c-4.4,1.7-6.7,4.8-6.7,9.3c0,2.8,1,5.2,3.1,7c2,1.8,3.7,2.5,6.4,2.5c5.8,0,10.1-4.7,9.6-10.4c-0.3-3.4-2.2-6.3-5.2-7.8C72.1,128.4,68.5,128.1,66.7,128.8z"/><path fill="#000000" d="M180.9,109.9c-5.2,1-10.6,4-14.4,7.8c-2.9,2.9-3.9,4.3-5.5,7.3c-4.7,9.3-4.1,20.3,1.7,28.9c9.8,14.6,30.4,17,43.3,4.9c9.3-8.7,11.7-22.4,5.9-33.9c-2.8-5.6-8.2-10.7-14-13.2C193.4,109.7,185.7,108.9,180.9,109.9z M191.8,119c6.6,1.8,12.1,7.3,13.8,13.9c0.3,1.2,0.6,3.5,0.6,5.2c0,5.7-1.7,9.7-5.9,13.8c-4.1,4.1-8.4,5.9-13.9,5.9s-9.8-1.8-13.9-5.9c-4.2-4.1-5.9-8.2-5.9-13.8c0-6.8,3.1-12.8,8.5-16.4C180.4,118.3,185.9,117.3,191.8,119z"/><path fill="#000000" d="M183.1,128.9c-3.2,1.1-5.8,4.5-6.3,8c-0.4,2.5,0.7,5.5,2.7,7.6c6.9,7.5,19,0.4,16.2-9.4C194.2,130,188.3,127,183.1,128.9z"/></g></g></g>
</svg>