<?xml version="1.0" encoding="utf-8"?>
<!-- Svg Vector Icons : http://www.onlinewebfonts.com/icon -->
<!DOCTYPE svg PUBLIC "-//W3C//DTD SVG 1.1//EN" "http://www.w3.org/Graphics/SVG/1.1/DTD/svg11.dtd">
<svg version="1.1" xmlns="http://www.w3.org/2000/svg" xmlns:xlink="http://www.w3.org/1999/xlink" x="0px" y="0px" viewBox="0 0 256 256" enable-background="new 0 0 256 256" xml:space="preserve">
<metadata> Svg Vector Icons : http://www.onlinewebfonts.com/icon </metadata>
<g><g><path fill="#000000" d="M161.4,140c1.3,0,6.3,2.3,15,6.8s13.2,7.2,13.8,8.1c0.2,0.5,0.3,1.3,0.3,2.3c0,3.4-0.9,7.3-2.6,11.7c-1.6,4-5.3,7.3-10.9,10.1S166,183,161.2,183c-5.8,0-15.6-3.2-29.2-9.5c-10-4.6-18.7-10.7-26.1-18.1s-15-17-22.7-28.4c-7.4-11-11-20.9-10.9-29.8v-1.2c0.3-9.3,4.1-17.4,11.4-24.3c2.5-2.3,5.1-3.4,8-3.4c0.6,0,1.5,0.1,2.8,0.2c1.2,0.2,2.2,0.2,2.9,0.2c2,0,3.3,0.3,4.1,1s1.6,2.1,2.4,4.2c0.8,2,2.5,6.6,5.1,13.5c2.6,7,3.9,10.8,3.8,11.5c0,2.1-1.8,5.1-5.3,8.8c-3.5,3.7-5.3,6.1-5.3,7.1c0,0.7,0.3,1.5,0.8,2.3c3.5,7.5,8.7,14.5,15.7,21c5.7,5.4,13.5,10.6,23.2,15.5c1.2,0.7,2.4,1.1,3.4,1.1c1.5,0,4.3-2.5,8.3-7.4s6.7-7.4,8-7.4L161.4,140z M130.1,221.4c13,0,25.5-2.6,37.4-7.7s22.2-12,30.8-20.6c8.6-8.6,15.5-18.9,20.6-30.8c5.1-11.9,7.7-24.4,7.7-37.4c0-13-2.6-25.5-7.7-37.4c-5.1-11.9-12-22.2-20.6-30.8c-8.6-8.6-18.9-15.5-30.8-20.6c-11.9-5.1-24.4-7.7-37.4-7.7c-13,0-25.5,2.6-37.4,7.7c-11.9,5.1-22.2,12-30.8,20.6c-8.6,8.6-15.5,18.9-20.6,30.8c-5.1,11.9-7.7,24.4-7.7,37.4c0,20.8,6.1,39.6,18.4,56.5L40,217.2l37.2-11.8C93.3,216.1,111,221.4,130.1,221.4L130.1,221.4z M130.1,9.1c15.7,0,30.7,3.1,44.9,9.2c14.3,6.1,26.6,14.4,37,24.7s18.6,22.7,24.7,36.9c6.1,14.3,9.2,29.3,9.2,44.9c0,15.7-3.1,30.7-9.2,44.9c-6.1,14.3-14.4,26.6-24.7,37s-22.7,18.6-37,24.7c-14.3,6.1-29.3,9.2-44.9,9.2c-20,0-38.7-4.8-56.1-14.4L10,246.9l20.9-62.2c-11.1-18.2-16.6-38.1-16.6-59.7c0-15.7,3.1-30.7,9.2-44.9c6.1-14.3,14.4-26.6,24.7-36.9c10.3-10.3,22.7-18.6,36.9-24.7C99.5,12.2,114.5,9.1,130.1,9.1L130.1,9.1z"/></g></g>
</svg>