<?xml version="1.0" encoding="iso-8859-1"?>
<!-- Uploaded to: SVG Repo, www.svgrepo.com, Generator: SVG Repo Mixer Tools -->
<svg fill="#000000" height="800px" width="800px" version="1.1" id="Layer_1" xmlns="http://www.w3.org/2000/svg" xmlns:xlink="http://www.w3.org/1999/xlink" 
	 viewBox="0 0 513.602 513.602" xml:space="preserve">
<g>
	<g>
		<path d="M440.001,355.202c-8-27.2-36.8-56-65.6-83.2c-17.6-16-49.6-48-48-57.6c3.2-4.8,3.2-9.6,0-14.4c-1.6-3.2-3.2-4.8-6.4-6.4
			c16-49.6,44.8-89.6,60.8-113.6c14.4-20.8,20.8-28.8,14.4-40c-3.2-6.4-9.6-9.6-16-8c-30.4,3.2-60.8,25.6-86.4,56
			c-9.6-89.6-30.4-88-36.8-88c-9.6,0-27.2,0-35.2,86.4c-27.2-30.4-59.2-52.8-89.6-56c-6.4,0-12.8,3.2-16,8
			c-6.4,12.8,0,20.8,14.4,41.6c16,24,44.8,64,59.2,112c-1.6,1.6-3.2,3.2-3.2,4.8c-3.2,4.8-3.2,11.2,0,16c1.6,9.6-30.4,41.6-48,59.2
			c-27.2,27.2-56,56-64,81.6c-9.6,33.6-3.2,64,16,91.2c30.4,40,91.2,65.6,161.6,67.2c1.6,0,3.2,1.6,4.8,1.6
			c72,0,137.6-25.6,168-67.2C443.201,419.202,449.601,388.802,440.001,355.202z M340.801,83.202c-19.2,28.8-41.6,68.8-54.4,115.2
			c-3.2-4.8-6.4-9.6-9.6-12.8C286.401,147.202,312.001,107.202,340.801,83.202z M256.001,60.802c3.2,17.6,6.4,40,8,72
			c-1.6,4.8-4.8,8-6.4,12.8c-1.6-4.8-4.8-9.6-8-16C251.201,99.202,254.401,76.802,256.001,60.802z M168.001,81.602
			c30.4,22.4,59.2,64,68.8,102.4c-4.8,3.2-8,9.6-11.2,14.4c-1.6,0-1.6-1.6-3.2-1.6C211.201,150.402,187.201,110.402,168.001,81.602z
			 M398.401,425.602c-24,32-76.8,52.8-136,54.4c-1.6,0-3.2-1.6-4.8-1.6c-62.4,0-116.8-20.8-142.4-54.4c-14.4-19.2-19.2-40-12.8-62.4
			c4.8-17.6,32-44.8,56-68.8c22.4-22.4,44.8-43.2,52.8-62.4c1.6,1.6,1.6,3.2,3.2,4.8c3.2,6.4,8,9.6,16,9.6c6.4,0,12.8-4.8,14.4-11.2
			c3.2-9.6,8-19.2,11.2-24c3.2,4.8,8,14.4,11.2,24c1.6,6.4,8,11.2,14.4,11.2c6.4,0,12.8-3.2,16-9.6c0-1.6,1.6-3.2,1.6-3.2
			c8,19.2,30.4,40,54.4,64c24,22.4,51.2,49.6,56,67.2C416.001,385.602,411.201,406.402,398.401,425.602z"/>
	</g>
</g>
</svg>